# Blender 3.3.0
# www.blender.org
mtllib lamppost.mtl
o Cube
v 0.513096 1.000000 -0.513096
v 1.000000 0.000000 -1.000000
v 1.000000 0.000000 1.000000
v -0.513096 1.000000 -0.513096
v -1.000000 0.000000 -1.000000
v -1.000000 0.000000 1.000000
v 1.000000 1.000000 1.000000
v -1.000000 1.000000 1.000000
v 1.000000 1.000000 -1.000000
v -1.000000 1.000000 -1.000000
v 0.264978 10.466579 0.513096
v -0.264978 10.466579 0.513096
v 0.513096 10.537079 -0.513096
v -0.513096 10.537079 -0.513096
v 0.513096 1.000000 0.513096
v -0.513096 1.000000 0.513096
v 0.513096 10.537079 0.513096
v -0.513096 10.537079 0.513096
v 0.264978 10.466579 2.786848
v -0.264978 10.466579 2.786848
v 0.105240 9.611536 2.423406
v -0.090875 9.611536 2.423406
v 0.105240 9.611536 2.632374
v -0.090875 9.611536 2.632374
v 0.264978 9.608751 0.513096
v -0.264978 9.608751 0.513096
v -0.264978 9.608751 2.786848
v 0.264978 9.608751 2.786848
v 0.105240 8.725801 2.423406
v -0.090875 8.725801 2.423406
v -0.090875 8.725801 2.632374
v 0.105240 8.725801 2.632374
v 0.491149 8.566573 2.036202
v -0.476784 8.566573 2.036202
v -0.476784 8.566573 3.019578
v 0.491148 8.566573 3.019578
v 0.000000 0.000000 -1.000000
v 0.000000 0.000000 1.000000
v 0.007182 8.566573 2.036202
v 0.007182 8.566573 3.019578
v -0.476784 8.566573 2.527890
v 0.491149 8.566573 2.527890
v 0.007182 8.566573 2.527890
v -0.476784 8.566573 2.282047
v 0.491149 8.566573 2.282047
v 0.007182 8.566573 2.282047
v -0.476784 8.566573 2.773734
v 0.491149 8.566573 2.773734
v 0.007182 8.566573 2.773734
v 0.500000 0.000000 1.000000
v 0.249165 8.566573 3.019578
v 0.500000 0.000000 -1.000000
v 0.249165 8.566573 2.036202
v 0.249165 8.566573 2.527890
v 0.249165 8.566573 2.282047
v 0.249165 8.566573 2.773734
v -0.500000 0.000000 -1.000000
v -0.234801 8.566573 2.036202
v -0.500000 0.000000 1.000000
v -0.234801 8.566573 3.019578
v -0.234801 8.566573 2.527890
v -0.234801 8.566573 2.282047
v -0.234801 8.566573 2.773734
v -0.476784 8.566573 2.159125
v 0.491149 8.566573 2.159125
v 0.007182 8.566573 2.159125
v 0.249165 8.566573 2.159125
v -0.234801 8.566573 2.159125
v -0.476784 8.566573 2.896656
v 0.491149 8.566573 2.896656
v 0.007182 8.566573 2.896656
v 0.249165 8.566573 2.896656
v -0.234801 8.566573 2.896656
v 0.750000 0.000000 1.000000
v 0.370157 8.566573 3.019578
v 0.370157 8.566573 2.527890
v 0.370157 8.566573 2.282047
v 0.370157 8.566573 2.773734
v 0.750000 0.000000 -1.000000
v 0.370157 8.566573 2.036202
v 0.370157 8.566573 2.159125
v 0.370157 8.566573 2.896656
v -0.750000 0.000000 -1.000000
v -0.355792 8.566573 2.036202
v -0.750000 0.000000 1.000000
v -0.355792 8.566573 3.019578
v -0.355792 8.566573 2.527890
v -0.355792 8.566573 2.282047
v -0.355792 8.566573 2.773734
v -0.355792 8.566573 2.159125
v -0.355792 8.566573 2.896656
v -0.355792 7.584632 2.036202
v -0.476784 7.584632 2.036202
v -0.476784 7.584632 2.896656
v -0.476784 7.584632 3.019578
v 0.491149 7.584632 2.896656
v 0.491148 7.584632 3.019578
v 0.370157 7.584632 3.019578
v -0.476784 7.584632 2.159125
v 0.491149 7.584632 2.036202
v 0.491149 7.584632 2.159125
v 0.370157 7.584632 2.159125
v 0.370157 7.584632 2.896656
v 0.370157 7.584632 2.036202
v -0.355792 7.584632 3.019578
v -0.355792 7.584632 2.159125
v -0.355792 7.584632 2.896656
v 0.249165 8.428828 2.036202
v 0.007182 8.428828 2.036202
v -0.234801 8.428828 3.019578
v 0.007182 8.428828 3.019578
v 0.007182 8.428828 2.896656
v -0.476784 8.428828 2.282047
v -0.476784 8.428828 2.527890
v 0.491149 8.428828 2.282047
v 0.491149 8.428828 2.527890
v 0.370157 8.428828 2.527890
v -0.476784 8.428828 2.159125
v 0.491149 8.428828 2.159125
v 0.370157 8.428828 2.282047
v -0.476784 8.428828 2.773734
v 0.491149 8.428828 2.773734
v 0.370157 8.428828 2.773734
v 0.249165 8.428828 3.019578
v 0.370157 8.428828 2.036202
v 0.249165 8.428828 2.896656
v -0.234801 8.428828 2.036202
v -0.355792 8.428828 3.019578
v -0.234801 8.428828 2.896656
v 0.007182 8.428828 2.159125
v 0.249165 8.428828 2.159125
v -0.234801 8.428828 2.159125
v -0.355792 8.428828 2.159125
v 0.370157 8.428828 2.159125
v -0.476784 8.428828 2.896656
v 0.491149 8.428828 2.896656
v -0.355792 8.428828 2.896656
v 0.370157 8.428828 2.896656
v 0.370157 8.428828 3.019578
v -0.355792 8.428828 2.036202
v -0.355792 8.428828 2.527890
v -0.355792 8.428828 2.282047
v -0.355792 8.428828 2.773734
v -0.355792 7.454670 2.036202
v -0.476784 7.454670 2.036202
v -0.476784 7.454670 2.896656
v -0.476784 7.454670 3.019578
v 0.491149 7.454670 2.896656
v 0.491148 7.454670 3.019578
v 0.370157 7.454670 3.019578
v -0.476784 7.454670 2.159125
v 0.491149 7.454670 2.036202
v 0.491149 7.454670 2.159125
v 0.370157 7.454670 2.159125
v 0.370157 7.454670 2.896656
v 0.370157 7.454670 2.036202
v -0.355792 7.454670 3.019578
v -0.355792 7.454670 2.159125
v -0.355792 7.454670 2.896656
v 0.370157 7.585279 2.125142
v 0.491149 7.584632 2.125142
v -0.476784 7.584632 2.125142
v -0.355792 7.584632 2.125142
v 0.370157 7.454670 2.125142
v 0.491149 7.454670 2.125142
v -0.476784 7.454670 2.125142
v -0.355792 7.454670 2.125142
v -0.364847 7.584632 2.896656
v -0.364847 7.584632 3.019578
v -0.364847 7.584632 2.036202
v -0.364847 7.586214 2.159125
v -0.364847 7.454670 2.896656
v -0.364847 7.454670 3.019578
v -0.364847 7.454670 2.036202
v -0.364847 7.454670 2.159125
v 0.370157 7.454670 2.926687
v 0.370157 7.584632 2.926687
v -0.364847 7.454670 2.926687
v -0.364847 7.586214 2.926687
vn -1.0000 -0.0000 -0.0000
vn -0.0000 -1.0000 -0.0000
vn 1.0000 -0.0000 -0.0000
vn -0.0000 1.0000 -0.0000
vn -0.0000 -0.0000 1.0000
vn -0.0174 -0.9998 -0.0000
vn -0.0000 -0.9998 -0.0180
vn -0.0000 -0.0000 -1.0000
vn -0.3814 0.9244 -0.0000
vn -0.0000 0.9249 -0.3803
vn 0.3814 0.9244 -0.0000
vn 0.0160 -0.9999 -0.0000
vn -0.0000 0.9249 0.3803
vn -0.0000 -1.0000 0.0015
vn 0.0027 1.0000 0.0004
vn 0.0011 1.0000 -0.0064
vn 0.0022 1.0000 -0.0000
vt 0.195209 0.482896
vt 0.334177 0.607936
vt 0.197060 0.497707
vt 0.197060 0.436868
vt 0.191307 0.482896
vt 0.324467 0.607936
vt 0.189455 0.497707
vt 0.189455 0.436868
vt 0.197060 0.436868
vt 0.189455 0.436868
vt 0.197060 0.497707
vt 0.189455 0.497707
vt 0.331829 0.530260
vt 0.328695 0.692060
vt 0.326815 0.530260
vt 0.320031 0.692060
vt 0.334177 0.607936
vt 0.324467 0.607936
vt 0.334177 0.530260
vt 0.195209 0.451679
vt 0.324467 0.530260
vt 0.191307 0.451679
vt 0.334177 0.530260
vt 0.324467 0.530260
vt 0.328695 0.394657
vt 0.320031 0.394657
vt 0.414221 0.479464
vt 0.326084 0.442194
vt 0.410373 0.479464
vt 0.322877 0.442194
vt 0.326084 0.414862
vt 0.414221 0.446665
vt 0.322877 0.414862
vt 0.410373 0.446665
vt 0.328695 0.692060
vt 0.331829 0.530260
vt 0.320031 0.692060
vt 0.326815 0.530260
vt 0.320031 0.394657
vt 0.328695 0.394657
vt 0.414221 0.479464
vt 0.410373 0.479464
vt 0.410373 0.446665
vt 0.414221 0.446665
vt 0.421792 0.540238
vt 0.402801 0.540238
vt 0.402801 0.385890
vt 0.421792 0.385890
vt 0.193258 0.497707
vt 0.193258 0.436868
vt 0.412297 0.540238
vt 0.412297 0.385890
vt 0.402801 0.463064
vt 0.421792 0.463064
vt 0.412297 0.463064
vt 0.402801 0.501651
vt 0.421792 0.501651
vt 0.412297 0.501651
vt 0.402801 0.424477
vt 0.421792 0.424477
vt 0.412297 0.424477
vt 0.195159 0.436868
vt 0.417044 0.385890
vt 0.195159 0.497707
vt 0.417044 0.540238
vt 0.417044 0.463064
vt 0.417044 0.501651
vt 0.417044 0.424477
vt 0.191357 0.497707
vt 0.407549 0.540238
vt 0.191357 0.436868
vt 0.407549 0.385890
vt 0.407549 0.463064
vt 0.407549 0.501651
vt 0.407549 0.424477
vt 0.770095 0.689137
vt 0.402801 0.520945
vt 0.729905 0.689137
vt 0.421792 0.520945
vt 0.412297 0.520945
vt 0.417044 0.520945
vt 0.407549 0.520945
vt 0.770095 0.689137
vt 0.402801 0.405184
vt 0.421792 0.405184
vt 0.729905 0.689137
vt 0.412297 0.405184
vt 0.417044 0.405184
vt 0.407549 0.405184
vt 0.196110 0.436868
vt 0.419418 0.385890
vt 0.419418 0.463064
vt 0.419418 0.501651
vt 0.419418 0.424477
vt 0.196110 0.497707
vt 0.734929 0.689137
vt 0.419418 0.540238
vt 0.734929 0.689137
vt 0.419418 0.520945
vt 0.734929 0.689137
vt 0.419418 0.405184
vt 0.190406 0.497707
vt 0.765071 0.689137
vt 0.405175 0.540238
vt 0.190406 0.436868
vt 0.405175 0.385890
vt 0.765071 0.689137
vt 0.405175 0.463064
vt 0.405175 0.501651
vt 0.405175 0.424477
vt 0.405175 0.520945
vt 0.765071 0.689137
vt 0.405175 0.405184
vt 0.765071 0.689137
vt 0.405175 0.540238
vt 0.765071 0.689137
vt 0.402801 0.540238
vt 0.402801 0.405184
vt 0.402801 0.385890
vt 0.421792 0.405184
vt 0.421792 0.385890
vt 0.419418 0.385890
vt 0.402801 0.520945
vt 0.770095 0.689137
vt 0.421792 0.540238
vt 0.421792 0.520945
vt 0.419418 0.520945
vt 0.419418 0.405184
vt 0.419418 0.540238
vt 0.405175 0.385890
vt 0.339292 0.423095
vt 0.405175 0.520945
vt 0.765071 0.689137
vt 0.339292 0.442388
vt 0.405175 0.405184
vt 0.417044 0.540238
vt 0.412297 0.540238
vt 0.407549 0.385890
vt 0.412297 0.385890
vt 0.412297 0.405184
vt 0.402801 0.501651
vt 0.402801 0.463064
vt 0.421792 0.501651
vt 0.421792 0.463064
vt 0.419418 0.463064
vt 0.770095 0.689137
vt 0.402801 0.520945
vt 0.729905 0.689137
vt 0.421792 0.520945
vt 0.419418 0.501651
vt 0.402801 0.424477
vt 0.421792 0.424477
vt 0.419418 0.424477
vt 0.417044 0.385890
vt 0.734929 0.689137
vt 0.419418 0.540238
vt 0.417044 0.405184
vt 0.407549 0.540238
vt 0.405175 0.385890
vt 0.765071 0.689137
vt 0.407549 0.405184
vt 0.412297 0.520945
vt 0.417044 0.520945
vt 0.407549 0.520945
vt 0.405175 0.520945
vt 0.765071 0.689137
vt 0.734929 0.689137
vt 0.419418 0.520945
vt 0.770095 0.689137
vt 0.402801 0.405184
vt 0.421792 0.405184
vt 0.729905 0.689137
vt 0.405175 0.405184
vt 0.765071 0.689137
vt 0.734929 0.689137
vt 0.419418 0.405184
vt 0.419418 0.385890
vt 0.765071 0.689137
vt 0.405175 0.540238
vt 0.405175 0.463064
vt 0.405175 0.501651
vt 0.405175 0.424477
vt 0.405175 0.540238
vt 0.765071 0.689137
vt 0.402801 0.540238
vt 0.402801 0.405184
vt 0.402801 0.385890
vt 0.421792 0.405184
vt 0.421792 0.385890
vt 0.419418 0.385890
vt 0.402801 0.520945
vt 0.770095 0.689137
vt 0.421792 0.540238
vt 0.421792 0.520945
vt 0.419418 0.520945
vt 0.419418 0.405184
vt 0.419418 0.540238
vt 0.405175 0.385890
vt 0.339292 0.423095
vt 0.405175 0.520945
vt 0.765071 0.689137
vt 0.339292 0.442388
vt 0.405175 0.405184
vt 0.734929 0.689137
vt 0.419418 0.526279
vt 0.729905 0.689137
vt 0.421792 0.526279
vt 0.336918 0.563483
vt 0.402801 0.526279
vt 0.339292 0.563483
vt 0.405175 0.526279
vt 0.734929 0.689137
vt 0.419418 0.526279
vt 0.729905 0.689137
vt 0.421792 0.526279
vt 0.336918 0.563483
vt 0.402801 0.526279
vt 0.339292 0.563483
vt 0.405175 0.526279
vt 0.734929 0.689137
vt 0.404998 0.405184
vt 0.404998 0.385890
vt 0.734929 0.689137
vt 0.339114 0.577443
vt 0.404998 0.540238
vt 0.339114 0.558149
vt 0.404998 0.520945
vt 0.734929 0.689137
vt 0.404998 0.405184
vt 0.734929 0.689137
vt 0.404998 0.385890
vt 0.339114 0.577443
vt 0.404998 0.540238
vt 0.404998 0.520945
vt 0.339114 0.558149
vt 0.419418 0.520945
vt 0.419418 0.520945
vt 0.404998 0.520945
vt 0.339114 0.558149
vt 0.339114 0.558149
vt 0.404998 0.520945
s 0
usemtl Material
f 4/6/1 16/21/1 18/24/1 14/18/1
f 6/8/1 8/10/1 10/12/1 5/7/1
f 79/95/2 2/3/2 3/4/2 74/90/2
f 2/3/3 9/11/3 7/9/3 3/4/3
f 4/5/4 1/1/4 9/11/4 10/12/4
f 7/9/5 8/10/5 6/8/5 85/105/5 59/71/5 38/50/5 50/62/5 74/90/5 3/4/5
f 1/1/4 15/20/4 7/9/4 9/11/4
f 16/22/4 4/5/4 10/12/4 8/10/4
f 14/18/4 18/24/4 17/23/4 13/17/4
f 15/19/3 1/2/3 13/17/3 17/23/3
f 11/13/5 17/23/5 18/24/5 12/15/5
f 26/38/5 12/15/5 18/24/5 16/21/5
f 11/13/5 25/36/5 15/19/5 17/23/5
f 27/39/5 28/40/5 19/25/5 20/26/5
f 26/37/1 27/39/1 20/26/1 12/16/1
f 21/28/6 25/35/6 28/40/6 23/31/6
f 24/33/7 23/31/7 28/40/7 27/39/7
f 21/27/8 29/41/8 30/42/8 22/29/8
f 22/29/1 30/42/1 31/43/1 24/34/1
f 33/45/3 65/79/3 101/126/3 100/125/3
f 30/42/9 34/46/9 64/77/9 44/56/9 41/53/9 47/59/9 69/84/9 35/47/9 31/43/9
f 29/41/10 33/45/10 80/97/10 53/65/10 39/51/10 58/70/10 84/104/10 34/46/10 30/42/10
f 81/99/5 67/81/5 131/163/5 134/168/5
f 57/69/2 37/49/2 38/50/2 59/71/2
f 63/75/2 61/73/2 43/55/2 49/61/2
f 42/54/3 48/60/3 122/152/3 116/144/3
f 61/73/2 62/74/2 46/58/2 43/55/2
f 84/104/8 58/70/8 127/158/8 140/179/8
f 47/59/1 41/53/1 114/142/1 121/151/1
f 73/89/2 63/75/2 49/61/2 71/87/2
f 71/87/2 49/61/2 56/68/2 72/88/2
f 43/55/2 46/58/2 55/67/2 54/66/2
f 49/61/2 43/55/2 54/66/2 56/68/2
f 90/112/1 84/103/1 140/178/1 133/166/1
f 37/49/2 52/64/2 50/62/2 38/50/2
f 91/113/2 89/110/2 63/75/2 73/89/2
f 87/108/2 88/109/2 62/74/2 61/73/2
f 89/110/2 87/108/2 61/73/2 63/75/2
f 83/102/2 57/69/2 59/71/2 85/105/2
f 51/63/5 40/52/5 111/139/5 124/154/5
f 88/109/2 90/111/2 68/82/2 62/74/2
f 46/58/2 66/80/2 67/81/2 55/67/2
f 11/14/3 19/25/3 28/40/3 25/35/3
f 62/74/2 68/82/2 66/80/2 46/58/2
f 80/96/3 81/98/3 134/167/3 125/155/3
f 67/81/5 66/80/5 130/162/5 131/163/5
f 75/91/5 51/63/5 124/154/5 139/177/5
f 90/111/3 88/109/3 142/181/3 133/165/3
f 29/41/11 32/44/11 36/48/11 70/85/11 48/60/11 42/54/11 45/57/11 65/79/11 33/45/11
f 81/99/1 80/97/1 104/129/1 102/127/1
f 21/27/3 23/32/3 32/44/3 29/41/3
f 22/30/12 24/33/12 27/39/12 26/37/12
f 78/94/1 76/92/1 117/145/1 123/153/1
f 55/67/2 67/81/2 81/99/2 77/93/2
f 4/6/8 14/18/8 13/17/8 1/2/8
f 72/88/2 56/68/2 78/94/2 82/101/2
f 54/66/2 55/67/2 77/93/2 76/92/2
f 56/68/2 54/66/2 76/92/2 78/94/2
f 68/82/5 90/111/5 133/165/5 132/164/5
f 52/64/2 79/95/2 74/90/2 50/62/2
f 91/113/3 86/106/3 105/130/3 107/135/3
f 81/98/8 65/78/8 119/148/8 134/167/8
f 31/43/13 35/47/13 86/106/13 60/72/13 40/52/13 51/63/13 75/91/13 36/48/13 32/44/13
f 64/77/1 34/46/1 93/117/1 99/123/1
f 24/34/5 31/43/5 32/44/5 23/32/5
f 21/28/14 22/30/14 26/37/14 25/35/14
f 20/26/4 19/25/4 11/14/4 12/16/4
f 25/36/5 26/38/5 16/21/5 15/19/5
f 10/12/8 9/11/8 2/3/8 79/95/8 52/64/8 37/49/8 57/69/8 83/102/8 5/7/8
f 15/20/4 16/22/4 8/10/4 7/9/4
f 5/7/2 83/102/2 85/105/2 6/8/2
f 89/110/3 91/113/3 137/173/3 143/182/3
f 45/57/3 42/54/3 116/144/3 115/143/3
f 76/92/1 77/93/1 120/150/1 117/145/1
f 97/121/5 98/122/5 150/190/5 149/189/5
f 98/122/4 103/128/4 168/221/4 169/222/4
f 96/120/3 97/121/3 149/189/3 148/188/3
f 150/190/5 98/122/5 169/222/5 173/231/5
f 82/101/8 70/85/8 96/120/8 103/128/8
f 34/46/8 84/104/8 92/115/8 93/117/8
f 75/91/1 82/101/1 103/128/1 98/122/1
f 90/111/5 64/77/5 99/123/5 106/132/5
f 35/47/1 69/84/1 94/118/1 95/119/1
f 86/106/5 35/47/5 95/119/5 105/130/5
f 70/85/3 36/48/3 97/121/3 96/120/3
f 84/104/3 90/111/3 106/132/3 92/115/3
f 69/84/8 91/113/8 107/135/8 94/118/8
f 80/97/8 33/45/8 100/125/8 104/129/8
f 36/48/5 75/91/5 98/122/5 97/121/5
f 65/79/5 81/99/5 102/127/5 101/126/5
f 132/164/2 127/158/2 109/137/2 130/162/2
f 123/153/2 117/145/2 116/144/2 122/152/2
f 117/145/2 120/150/2 115/143/2 116/144/2
f 138/176/2 123/153/2 122/152/2 136/171/2
f 130/162/2 109/137/2 108/136/2 131/163/2
f 133/165/2 140/179/2 127/158/2 132/164/2
f 120/150/2 134/168/2 119/149/2 115/143/2
f 128/159/2 137/173/2 129/161/2 110/138/2
f 111/139/2 112/140/2 126/157/2 124/154/2
f 110/138/2 129/161/2 112/140/2 111/139/2
f 124/154/2 126/157/2 138/176/2 139/177/2
f 131/163/2 108/136/2 125/156/2 134/168/2
f 113/141/2 118/147/2 133/165/2 142/181/2
f 121/151/2 114/142/2 141/180/2 143/182/2
f 114/142/2 113/141/2 142/181/2 141/180/2
f 135/170/2 121/151/2 143/182/2 137/173/2
f 91/113/8 73/89/8 129/161/8 137/173/8
f 60/72/5 86/106/5 128/159/5 110/138/5
f 64/76/8 90/112/8 133/166/8 118/146/8
f 72/88/8 82/101/8 138/176/8 126/157/8
f 71/87/8 72/88/8 126/157/8 112/140/8
f 44/56/1 64/77/1 118/147/1 113/141/1
f 82/101/3 75/91/3 139/177/3 138/176/3
f 73/89/8 71/87/8 112/140/8 129/161/8
f 91/114/5 69/83/5 135/169/5 137/174/5
f 69/84/1 47/59/1 121/151/1 135/170/1
f 65/79/3 45/57/3 115/143/3 119/149/3
f 39/51/8 53/65/8 108/136/8 109/137/8
f 48/60/3 70/85/3 136/171/3 122/152/3
f 87/108/3 89/110/3 143/182/3 141/180/3
f 77/93/1 81/99/1 134/168/1 120/150/1
f 66/80/5 68/82/5 132/164/5 130/162/5
f 70/86/5 82/100/5 138/175/5 136/172/5
f 40/52/5 60/72/5 110/138/5 111/139/5
f 82/101/1 78/94/1 123/153/1 138/176/1
f 41/53/1 44/56/1 113/141/1 114/142/1
f 88/109/3 87/108/3 141/180/3 142/181/3
f 58/70/8 39/51/8 109/137/8 127/158/8
f 53/65/8 80/97/8 125/156/8 108/136/8
f 86/107/1 91/114/1 137/174/1 128/160/1
f 154/195/2 156/197/2 152/193/2 153/194/2
f 150/190/2 155/196/2 148/188/2 149/189/2
f 147/187/2 146/186/2 159/203/2 157/198/2
f 151/191/2 145/185/2 144/183/2 158/200/2
f 105/130/5 95/119/5 147/187/5 157/198/5
f 99/123/1 93/117/1 145/185/1 151/191/1
f 106/133/5 99/124/5 151/192/5 158/201/5
f 100/125/3 101/126/3 153/194/3 152/193/3
f 107/135/3 159/203/3 167/219/3 163/211/3
f 101/126/5 102/127/5 154/195/5 153/194/5
f 107/134/3 105/131/3 157/199/3 159/202/3
f 103/128/15 96/120/15 161/207/15 160/205/15
f 93/117/8 92/115/8 144/183/8 145/185/8
f 92/116/3 106/133/3 158/201/3 144/184/3
f 104/129/8 100/125/8 152/193/8 156/197/8
f 95/119/1 94/118/1 146/186/1 147/187/1
f 162/208/8 163/210/8 167/218/8 166/216/8
f 160/204/8 161/206/8 165/214/8 164/212/8
f 148/188/2 155/196/2 164/213/2 165/215/2
f 155/196/1 103/128/1 160/205/1 164/213/1
f 146/186/1 94/118/1 162/209/1 166/217/1
f 96/120/3 148/188/3 165/215/3 161/207/3
f 94/118/4 107/135/4 163/211/4 162/209/4
f 159/203/2 146/186/2 166/217/2 167/219/2
f 171/226/1 170/224/1 174/232/1 175/235/1
f 169/223/1 168/220/1 172/228/1 173/230/1
f 104/129/8 156/197/8 174/233/8 170/225/8
f 155/196/2 150/190/2 173/231/2 172/229/2
f 103/128/8 155/196/8 172/229/8 168/221/8
f 102/127/16 104/129/16 170/225/16 171/227/16
f 175/234/2 154/195/2 176/236/2 178/238/2
f 156/197/2 154/195/2 175/234/2 174/233/2
f 176/236/5 177/237/5 179/241/5 178/238/5
f 171/226/1 175/235/1 178/239/1 179/240/1
f 102/127/17 171/227/17 179/241/17 177/237/17
f 154/195/3 102/127/3 177/237/3 176/236/3
