# Blender 3.3.0
# www.blender.org
mtllib newCube.mtl
o Cube
v -1.000000 -1.000000 1.000000
v -1.000000 1.000000 1.000000
v -1.000000 -1.000000 -1.000000
v -1.000000 1.000000 -1.000000
v 1.000000 -1.000000 1.000000
v 1.000000 1.000000 1.000000
v 1.000000 -1.000000 -1.000000
v 1.000000 1.000000 -1.000000
v -1.000000 -1.000000 0.000000
v 1.000000 -1.000000 0.000000
v 1.000000 0.000000 0.000000
v -1.000000 0.000000 0.000000
v 0.000000 -1.000000 -1.000000
v 0.000000 -1.000000 1.000000
v 0.000000 -1.000000 0.000000
v 0.000000 0.000000 1.000000
v 0.000000 0.000000 -1.000000
v -1.000000 0.500000 1.000000
v -1.000000 0.500000 -1.000000
v 1.000000 0.500000 -1.000000
v 1.000000 0.500000 1.000000
vn -0.0000 -1.0000 -0.0000
vn -0.0000 1.0000 -0.0000
vn 1.0000 -0.0000 -0.0000
vn -0.0000 -0.0000 1.0000
vn -0.0000 -0.0000 -1.0000
vn -1.0000 -0.0000 -0.0000
vt 0.409788 0.514040
vt 0.437475 0.705053
vt 0.409788 0.321897
vt 0.437475 0.818385
vt 0.601931 0.514040
vt 0.550807 0.705053
vt 0.601931 0.321897
vt 0.550807 0.818385
vt 0.409788 0.417969
vt 0.601931 0.417969
vt 0.601931 0.417969
vt 0.550807 0.761719
vt 0.437475 0.761719
vt 0.409788 0.417969
vt 0.505859 0.321897
vt 0.505859 0.514040
vt 0.505859 0.417969
vt 0.505859 0.514040
vt 0.494141 0.705053
vt 0.505859 0.321897
vt 0.494141 0.818385
vt 0.437475 0.705053
vt 0.409788 0.514040
vt 0.409788 0.321897
vt 0.437475 0.818385
vt 0.601931 0.321897
vt 0.550807 0.818385
vt 0.601931 0.514040
vt 0.550807 0.705053
s 0
usemtl Material.001
f 15/17/1 10/10/1 5/5/1 14/16/1
f 8/8/2 4/4/2 2/2/2 6/6/2
f 13/15/1 7/7/1 10/10/1 15/17/1
f 7/7/3 20/26/3 11/11/3 10/10/3
f 18/23/4 1/1/4 14/16/4 16/18/4
f 11/11/3 21/28/3 5/5/3 10/10/3
f 20/26/5 7/7/5 13/15/5 17/20/5
f 19/24/6 3/3/6 9/9/6 12/14/6
f 5/5/4 21/28/4 16/18/4 14/16/4
f 3/3/5 19/24/5 17/20/5 13/15/5
f 3/3/1 13/15/1 15/17/1 9/9/1
f 9/9/1 15/17/1 14/16/1 1/1/1
f 6/6/3 21/29/3 11/12/3 20/27/3 8/8/3
f 4/4/6 19/25/6 12/13/6 18/22/6 2/2/6
f 8/8/5 20/27/5 17/21/5 19/25/5 4/4/5
f 2/2/4 18/22/4 16/19/4 21/29/4 6/6/4
f 1/1/6 18/23/6 12/14/6 9/9/6
