# Blender 3.3.0
# www.blender.org
mtllib star3.mtl
o Cube
v 1.172504 1.172504 -1.172504
v 1.172504 -1.172504 -1.172504
v 1.172504 1.172504 1.172504
v 1.172504 -1.172504 1.172504
v -1.172504 1.172504 -1.172504
v -1.172504 -1.172504 -1.172504
v -1.172504 1.172504 1.172504
v -1.172504 -1.172504 1.172504
v -0.752002 -0.752002 0.000000
v 0.752002 0.752002 0.000000
v -0.752002 0.752002 0.000000
v 0.752002 -0.752002 0.000000
v 0.752002 0.000000 -0.752002
v -0.752002 0.000000 0.752002
v 0.752002 0.000000 0.752002
v -0.752002 0.000000 -0.752002
v 1.000000 0.000000 0.000000
v -1.000000 0.000000 0.000000
v 0.000000 -0.752002 -0.752002
v 0.000000 0.752002 0.752002
v 0.000000 -0.752002 0.752002
v 0.000000 0.752002 -0.752002
v 0.000000 -1.000000 0.000000
v 0.000000 1.000000 0.000000
v 0.000000 0.000000 -1.000000
v 0.000000 0.000000 1.000000
vn 0.0732 0.9946 -0.0732
vn 0.0732 -0.0732 0.9946
vn -0.9946 -0.0732 0.0732
vn -0.0732 -0.9946 -0.0732
vn 0.9946 -0.0732 -0.0732
vn -0.0732 -0.0732 -0.9946
vn 0.9946 -0.0732 0.0732
vn -0.0732 -0.9946 0.0732
vn -0.9946 -0.0732 -0.0732
vn 0.0732 0.9946 0.0732
vn -0.9946 0.0732 -0.0732
vn 0.9946 0.0732 0.0732
vn -0.0732 0.0732 -0.9946
vn 0.9946 0.0732 -0.0732
vn -0.9946 0.0732 0.0732
vn 0.0732 0.0732 0.9946
vn -0.0732 0.0732 0.9946
vn 0.0732 0.0732 -0.9946
vn -0.0732 0.9946 0.0732
vn 0.0732 -0.9946 0.0732
vn 0.0732 -0.0732 -0.9946
vn 0.0732 -0.9946 -0.0732
vn -0.0732 -0.0732 0.9946
vn -0.0732 0.9946 -0.0732
vt 0.625000 0.500000
vt 0.375000 0.500000
vt 0.625000 0.750000
vt 0.375000 0.750000
vt 0.875000 0.500000
vt 0.625000 0.250000
vt 0.375000 0.250000
vt 0.125000 0.500000
vt 0.875000 0.750000
vt 0.625000 1.000000
vt 0.625000 0.000000
vt 0.375000 0.000000
vt 0.375000 1.000000
vt 0.125000 0.750000
vt 0.375000 0.125000
vt 0.125000 0.625000
vt 0.625000 0.625000
vt 0.625000 0.125000
vt 0.875000 0.625000
vt 0.375000 0.625000
vt 0.500000 0.500000
vt 0.500000 0.000000
vt 0.500000 1.000000
vt 0.500000 0.750000
vt 0.500000 0.250000
vt 0.500000 0.625000
vt 0.500000 0.125000
vt 0.375000 0.375000
vt 0.250000 0.500000
vt 0.625000 0.875000
vt 0.750000 0.750000
vt 0.375000 0.875000
vt 0.250000 0.750000
vt 0.750000 0.500000
vt 0.625000 0.375000
vt 0.250000 0.625000
vt 0.750000 0.625000
vt 0.500000 0.375000
vt 0.500000 0.875000
s 0
usemtl Material
f 24/37/1 11/19/1 7/9/1 20/31/1
f 26/39/2 20/30/2 7/10/2 14/23/2
f 18/27/3 11/18/3 5/6/3 16/25/3
f 23/36/4 12/20/4 4/4/4 21/33/4
f 17/26/5 10/17/5 3/3/5 15/24/5
f 25/38/6 22/35/6 1/1/6 13/21/6
f 13/21/7 1/1/7 10/17/7 17/26/7
f 19/29/8 2/2/8 12/20/8 23/36/8
f 14/22/9 7/11/9 11/18/9 18/27/9
f 22/34/10 5/5/10 11/19/10 24/37/10
f 8/12/11 14/22/11 18/27/11 9/15/11
f 2/2/12 13/21/12 17/26/12 12/20/12
f 19/28/13 25/38/13 13/21/13 2/2/13
f 12/20/14 17/26/14 15/24/14 4/4/14
f 9/15/15 18/27/15 16/25/15 6/7/15
f 21/32/16 26/39/16 14/23/16 8/13/16
f 4/4/17 15/24/17 26/39/17 21/32/17
f 6/7/18 16/25/18 25/38/18 19/28/18
f 1/1/19 22/34/19 24/37/19 10/17/19
f 6/8/20 19/29/20 23/36/20 9/16/20
f 16/25/21 5/6/21 22/35/21 25/38/21
f 9/16/22 23/36/22 21/33/22 8/14/22
f 15/24/23 3/3/23 20/30/23 26/39/23
f 10/17/24 24/37/24 20/31/24 3/3/24
